<?xml version="1.0" standalone="no"?>
<!DOCTYPE svg PUBLIC "-//W3C//DTD SVG 20010904//EN"
 "http://www.w3.org/TR/2001/REC-SVG-20010904/DTD/svg10.dtd">
<svg version="1.0" xmlns="http://www.w3.org/2000/svg"
 width="48.000000pt" height="48.000000pt" viewBox="0 0 48.000000 48.000000"
 preserveAspectRatio="xMidYMid meet">

<g transform="translate(0.000000,48.000000) scale(0.100000,-0.100000)"
fill="#000000" stroke="none">
<path d="M0 240 l0 -240 240 0 240 0 0 240 0 240 -240 0 -240 0 0 -240z m147
50 c-6 -22 -4 -23 115 -20 45 1 69 -3 74 -12 6 -9 10 -4 14 17 7 38 40 48 40
12 0 -21 4 -23 33 -20 l32 4 -23 -20 c-19 -16 -21 -24 -13 -40 6 -11 11 -24
11 -30 0 -17 -32 -13 -46 7 -13 16 -13 16 -14 0 0 -14 -9 -18 -41 -18 l-41 0
6 35 c4 20 3 35 -2 35 -12 0 -22 -24 -22 -50 0 -16 -8 -18 -61 -18 l-61 1 4
34 c5 41 -15 39 -22 -3 -4 -24 -10 -30 -39 -32 -42 -4 -54 7 -55 55 -1 38 18
73 40 73 7 0 15 -8 17 -17 4 -15 6 -15 12 5 10 29 50 31 42 2z m103 5 c0 -8
-9 -15 -20 -15 -11 0 -20 7 -20 15 0 8 9 15 20 15 11 0 20 -7 20 -15z"/>
<path d="M87 243 c-4 -3 -7 -16 -6 -27 0 -19 1 -19 10 3 10 24 8 36 -4 24z"/>
</g>
</svg>
